# xmcd CD database file generated by Grip 2.95
# 
# Track frame offsets:
#       150
#       12892
#       25547
#       38209
#       56575
#       76714
#       95689
#       114216
#       125550
#       136761
#       141548
#       148473
#       171432
#       187188
#       202729
# 
# Disc length: 2935 seconds
# 
# Revision: 3
# Processed by: cddbd v1.4b41PL2 Copyright (c) Steve Scherf et al.
# Submitted via: Grip 2.95
# 
DISCID=d10b750f
DTITLE=Alison Fraser - Men In My Life
DYEAR=1900
DGENRE=
TTITLE0=Storyteller
TTITLE1=The Beautiful Land
TTITLE2=Quiet Nights of Quiet Stars/The Look of Love
TTITLE3=Everyday I Write The Book
TTITLE4=City Of Dreams/The End Comes Softly
TTITLE5=Parallel Lines
TTITLE6=Wrong For Me
TTITLE7=Young At Heart
TTITLE8=Smoke
TTITLE9=Put It On My Tab
TTITLE10=Show Me The Way To Go Home
TTITLE11=The Pill Song
TTITLE12=The Passion Of Rhoda
TTITLE13=Romantic Notions
TTITLE14=Men In My Life
EXTD=
EXTT0=
EXTT1=
EXTT2=
EXTT3=
EXTT4=
EXTT5=
EXTT6=
EXTT7=
EXTT8=
EXTT9=
EXTT10=
EXTT11=
EXTT12=
EXTT13=
EXTT14=
PLAYORDER=
